<svg width="398" height="168" viewBox="0 0 398 168" fill="none" xmlns="http://www.w3.org/2000/svg">
<path d="M77.0008 28C49.936 28 28.0015 49.9366 28.0015 76.9993C27.9994 104.062 49.936 126.001 77.0008 126.001H126V77.0014C126 49.9366 104.066 28 77.0008 28ZM112.001 112H77.0008C57.6682 112 42.0001 96.3319 42.0001 77.0014C42.0001 57.6709 57.6682 42.0007 77.0008 42.0007C96.3334 42.0007 112.001 57.6688 112.001 77.0014V112Z" fill="#8BC34A"/>
<path d="M154 154H168.001V168.001H154V154Z" fill="#8BC34A"/>
<path d="M126 140H140.001V153.999H126V140Z" fill="#8BC34A"/>
<path d="M140 126H153.999V140.001H140V126Z" fill="#8BC34A"/>
<path d="M77.0007 140.001C42.2058 140.001 14.0007 111.791 14.0007 77.0007C14.0007 42.2079 42.2058 14.0007 77.0007 14.0007C111.796 14.0007 140.001 42.2058 140.001 77.0007V112.001H153.999V77.0007C153.999 34.4757 119.526 0 77.0007 0C34.4757 0 0 34.4757 0 77.0007C0 119.528 34.4757 154.001 77.0007 154.001H112.001V140.003L77.0007 140.001Z" fill="white"/>
<path d="M77 56C65.3996 56 56 65.3996 56 77C56 88.6004 65.3996 98 77 98H98V77C98 65.3996 88.5962 56 77 56ZM83.9993 83.9993H77C73.1339 83.9993 70.0007 80.864 70.0007 77C70.0007 73.136 73.1339 70.0007 77 70.0007C80.8703 70.0007 83.9993 73.1339 83.9993 77V83.9993Z" fill="white"/>
<path d="M226.113 77.8086C226.113 83.5977 225 88.4375 222.773 92.3281C220.57 96.1953 217.371 99.1133 213.176 101.082C208.98 103.027 203.93 104 198.023 104H183.469V52.6016H199.605C204.996 52.6016 209.672 53.5625 213.633 55.4844C217.594 57.3828 220.664 60.207 222.844 63.957C225.023 67.6836 226.113 72.3008 226.113 77.8086ZM214.793 78.0898C214.793 74.293 214.23 71.1758 213.105 68.7383C212.004 66.2773 210.363 64.4609 208.184 63.2891C206.027 62.1172 203.355 61.5312 200.168 61.5312H194.367V95H199.043C204.363 95 208.312 93.582 210.891 90.7461C213.492 87.9102 214.793 83.6914 214.793 78.0898ZM246.645 64.6953V104H235.922V64.6953H246.645ZM241.301 49.2969C242.895 49.2969 244.266 49.6719 245.414 50.4219C246.562 51.1484 247.137 52.5195 247.137 54.5352C247.137 56.5273 246.562 57.9102 245.414 58.6836C244.266 59.4336 242.895 59.8086 241.301 59.8086C239.684 59.8086 238.301 59.4336 237.152 58.6836C236.027 57.9102 235.465 56.5273 235.465 54.5352C235.465 52.5195 236.027 51.1484 237.152 50.4219C238.301 49.6719 239.684 49.2969 241.301 49.2969Z" fill="white"/>
<path d="M300.891 104H290.027V81.8164H269.672V104H258.773V52.6016H269.672V72.7461H290.027V52.6016H300.891V104ZM349.125 64.6953V104H340.898L339.457 98.9727H338.895C338.051 100.309 336.996 101.398 335.73 102.242C334.465 103.086 333.07 103.707 331.547 104.105C330.023 104.504 328.441 104.703 326.801 104.703C323.988 104.703 321.539 104.211 319.453 103.227C317.367 102.219 315.738 100.66 314.566 98.5508C313.418 96.4414 312.844 93.6992 312.844 90.3242V64.6953H323.566V87.6523C323.566 90.4648 324.07 92.5859 325.078 94.0156C326.086 95.4453 327.691 96.1602 329.895 96.1602C332.074 96.1602 333.785 95.668 335.027 94.6836C336.27 93.6758 337.137 92.2109 337.629 90.2891C338.145 88.3438 338.402 85.9766 338.402 83.1875V64.6953H349.125ZM371.098 49.2969V62.0234C371.098 63.5 371.051 64.9648 370.957 66.418C370.887 67.8711 370.793 68.9961 370.676 69.793H371.098C372.129 68.1758 373.535 66.8047 375.316 65.6797C377.098 64.5312 379.406 63.957 382.242 63.957C386.648 63.957 390.223 65.6797 392.965 69.125C395.707 72.5703 397.078 77.6211 397.078 84.2773C397.078 88.7539 396.445 92.5156 395.18 95.5625C393.914 98.5859 392.145 100.871 389.871 102.418C387.598 103.941 384.961 104.703 381.961 104.703C379.078 104.703 376.805 104.188 375.141 103.156C373.477 102.125 372.129 100.965 371.098 99.6758H370.359L368.566 104H360.375V49.2969H371.098ZM378.797 72.5352C376.922 72.5352 375.434 72.9219 374.332 73.6953C373.23 74.4688 372.422 75.6289 371.906 77.1758C371.414 78.7227 371.145 80.6797 371.098 83.0469V84.207C371.098 88.0273 371.66 90.957 372.785 92.9961C373.91 95.0117 375.961 96.0195 378.938 96.0195C381.141 96.0195 382.887 95 384.176 92.9609C385.488 90.9219 386.145 87.9805 386.145 84.1367C386.145 80.293 385.488 77.3984 384.176 75.4531C382.863 73.5078 381.07 72.5352 378.797 72.5352Z" fill="#8BC34A"/>
</svg>
