<svg width="405" height="173" viewBox="0 0 405 173" fill="none" xmlns="http://www.w3.org/2000/svg">
<path d="M80.5941 28.7246C52.5883 28.7246 29.8911 51.2014 29.8911 78.9305C29.8889 106.66 52.5883 129.139 80.5941 129.139H131.297V78.9326C131.297 51.2014 108.6 28.7246 80.5941 28.7246ZM116.812 114.793H80.5941C60.5893 114.793 44.3764 98.7392 44.3764 78.9326C44.3764 59.1261 60.5893 43.0701 80.5941 43.0701C100.599 43.0701 116.812 59.124 116.812 78.9326V114.793Z" fill="#8BC34A"/>
<path d="M160.271 157.825H174.758V172.171H160.271V157.825Z" fill="#8BC34A"/>
<path d="M131.295 143.482H145.783V157.826H131.295V143.482Z" fill="#8BC34A"/>
<path d="M145.783 129.138H160.269V143.483H145.783V129.138Z" fill="#8BC34A"/>
<path d="M80.593 143.482C44.5883 143.482 15.4025 114.578 15.4025 78.931C15.4025 43.2814 44.5883 14.3796 80.593 14.3796C116.598 14.3796 145.783 43.2793 145.783 78.931V114.794H160.269V78.931C160.269 35.3588 124.597 0.0341797 80.593 0.0341797C36.5894 0.0341797 0.915039 35.3588 0.915039 78.931C0.915039 122.505 36.5894 157.828 80.593 157.828H116.811V143.484L80.593 143.482Z" fill="#6D28D9"/>
<path d="M80.5925 57.4141C68.5887 57.4141 58.8623 67.0451 58.8623 78.9312C58.8623 90.8172 68.5887 100.448 80.5925 100.448H102.323V78.9312C102.323 67.0451 92.5918 57.4141 80.5925 57.4141ZM87.8351 86.1028H80.5925C76.5919 86.1028 73.3498 82.8903 73.3498 78.9312C73.3498 74.972 76.5919 71.7595 80.5925 71.7595C84.5973 71.7595 87.8351 74.9699 87.8351 78.9312V86.1028Z" fill="#6D28D9"/>
<path d="M233.113 83.8086C233.113 89.5977 232 94.4375 229.773 98.3281C227.57 102.195 224.371 105.113 220.176 107.082C215.98 109.027 210.93 110 205.023 110H190.469V58.6016H206.605C211.996 58.6016 216.672 59.5625 220.633 61.4844C224.594 63.3828 227.664 66.207 229.844 69.957C232.023 73.6836 233.113 78.3008 233.113 83.8086ZM221.793 84.0898C221.793 80.293 221.23 77.1758 220.105 74.7383C219.004 72.2773 217.363 70.4609 215.184 69.2891C213.027 68.1172 210.355 67.5312 207.168 67.5312H201.367V101H206.043C211.363 101 215.312 99.582 217.891 96.7461C220.492 93.9102 221.793 89.6914 221.793 84.0898ZM253.645 70.6953V110H242.922V70.6953H253.645ZM248.301 55.2969C249.895 55.2969 251.266 55.6719 252.414 56.4219C253.562 57.1484 254.137 58.5195 254.137 60.5352C254.137 62.5273 253.562 63.9102 252.414 64.6836C251.266 65.4336 249.895 65.8086 248.301 65.8086C246.684 65.8086 245.301 65.4336 244.152 64.6836C243.027 63.9102 242.465 62.5273 242.465 60.5352C242.465 58.5195 243.027 57.1484 244.152 56.4219C245.301 55.6719 246.684 55.2969 248.301 55.2969Z" fill="#6D28D9"/>
<path d="M307.891 110H297.027V87.8164H276.672V110H265.773V58.6016H276.672V78.7461H297.027V58.6016H307.891V110ZM356.125 70.6953V110H347.898L346.457 104.973H345.895C345.051 106.309 343.996 107.398 342.73 108.242C341.465 109.086 340.07 109.707 338.547 110.105C337.023 110.504 335.441 110.703 333.801 110.703C330.988 110.703 328.539 110.211 326.453 109.227C324.367 108.219 322.738 106.66 321.566 104.551C320.418 102.441 319.844 99.6992 319.844 96.3242V70.6953H330.566V93.6523C330.566 96.4648 331.07 98.5859 332.078 100.016C333.086 101.445 334.691 102.16 336.895 102.16C339.074 102.16 340.785 101.668 342.027 100.684C343.27 99.6758 344.137 98.2109 344.629 96.2891C345.145 94.3438 345.402 91.9766 345.402 89.1875V70.6953H356.125ZM378.098 55.2969V68.0234C378.098 69.5 378.051 70.9648 377.957 72.418C377.887 73.8711 377.793 74.9961 377.676 75.793H378.098C379.129 74.1758 380.535 72.8047 382.316 71.6797C384.098 70.5312 386.406 69.957 389.242 69.957C393.648 69.957 397.223 71.6797 399.965 75.125C402.707 78.5703 404.078 83.6211 404.078 90.2773C404.078 94.7539 403.445 98.5156 402.18 101.562C400.914 104.586 399.145 106.871 396.871 108.418C394.598 109.941 391.961 110.703 388.961 110.703C386.078 110.703 383.805 110.188 382.141 109.156C380.477 108.125 379.129 106.965 378.098 105.676H377.359L375.566 110H367.375V55.2969H378.098ZM385.797 78.5352C383.922 78.5352 382.434 78.9219 381.332 79.6953C380.23 80.4688 379.422 81.6289 378.906 83.1758C378.414 84.7227 378.145 86.6797 378.098 89.0469V90.207C378.098 94.0273 378.66 96.957 379.785 98.9961C380.91 101.012 382.961 102.02 385.938 102.02C388.141 102.02 389.887 101 391.176 98.9609C392.488 96.9219 393.145 93.9805 393.145 90.1367C393.145 86.293 392.488 83.3984 391.176 81.4531C389.863 79.5078 388.07 78.5352 385.797 78.5352Z" fill="#8BC34A"/>
</svg>
